<svg width="667" height="563" viewBox="0 0 667 563" fill="none" xmlns="http://www.w3.org/2000/svg">
<rect x="-56" y="113.209" width="461.935" height="463.556" rx="20" transform="rotate(-14.1863 -56 113.209)" fill="#DB4437"/>
<rect x="10.3154" y="244.975" width="393" height="283" rx="12" transform="rotate(-14.1863 10.3154 244.975)" fill="white"/>
<path d="M12.521 253.7C10.8968 247.275 14.7888 240.75 21.2141 239.126L378.961 148.693C385.386 147.069 391.912 150.961 393.536 157.386L403.584 197.136L22.5691 293.45L12.521 253.7Z" fill="#E57C73"/>
<path d="M9.75462 214.204L4.14625 191.709L9.70024 190.324L18.9221 201.271L21.8911 187.285L27.4101 185.909L33.0185 208.404L27.3947 209.807L24.1725 196.882L22.0005 207.07L18.8917 207.845L12.1563 199.878L15.3785 212.802L9.75462 214.204ZM41.8236 206.58C40.7756 206.842 39.7511 206.899 38.75 206.753C37.7722 206.601 36.9197 206.208 36.1925 205.573C35.4595 204.914 34.9479 204.003 34.6576 202.839C34.2338 201.139 34.4734 199.669 35.3764 198.43C36.2969 197.162 37.9099 196.24 40.2153 195.665L44.8262 194.516L44.7304 194.131C44.5214 193.293 44.0939 192.769 43.4479 192.559C42.7962 192.326 41.7018 192.401 40.1648 192.784C38.2786 193.254 36.4998 194.007 34.8285 195.042L33.9228 191.409C34.6566 190.88 35.5796 190.365 36.6917 189.865C37.8271 189.36 39.0468 188.944 40.3509 188.619C42.9125 187.98 45.0458 188.005 46.7509 188.693C48.4792 189.375 49.6279 190.857 50.1968 193.14L52.7746 203.479L47.8494 204.707L47.2216 203.379C46.7554 204.089 46.0827 204.715 45.2034 205.255C44.3474 205.79 43.2208 206.232 41.8236 206.58ZM42.7429 202.678C43.6278 202.457 44.3585 202.114 44.9351 201.649C45.5117 201.184 45.9398 200.669 46.2196 200.105L45.6361 197.764L41.654 198.757C40.0006 199.169 39.3394 200.039 39.6703 201.366C39.8213 201.972 40.1499 202.397 40.6561 202.642C41.1624 202.887 41.858 202.899 42.7429 202.678ZM61.0359 207.949C60.1975 208.158 59.464 208.292 58.8353 208.35C58.2357 208.425 57.6158 208.419 56.9756 208.331L56.0002 204.419C56.4309 204.46 56.8151 204.463 57.1527 204.428C57.5136 204.388 57.8688 204.324 58.2181 204.237C59.1728 203.999 59.8396 203.647 60.2182 203.182C60.626 202.734 60.9669 202.018 61.2412 201.034L49.7514 186.646L55.6547 185.175L62.6423 194.6L64.3175 183.015L70.1859 181.552L67.6517 198.323C67.4003 199.993 67.0297 201.483 66.5399 202.793C66.0559 204.125 65.3771 205.222 64.5034 206.083C63.6355 206.967 62.4797 207.589 61.0359 207.949Z" fill="white"/>
<path d="M32.3757 270.548C31.5484 270.758 30.7565 270.889 29.9999 270.943C29.2595 271.006 28.6014 270.987 28.0255 270.885L27.354 268.228C27.9849 268.33 28.6624 268.372 29.3868 268.354C30.124 268.333 30.8029 268.244 31.4234 268.087C32.199 267.891 32.7563 267.674 33.0952 267.437C33.447 267.197 33.5625 266.838 33.4416 266.359C33.3599 266.036 33.1976 265.802 32.9547 265.657C32.7247 265.509 32.3785 265.418 31.9159 265.384C31.4631 265.333 30.8485 265.296 30.0724 265.272C29.1538 265.229 28.4033 265.116 27.8207 264.933C27.2349 264.738 26.7749 264.441 26.4408 264.045C26.1067 263.648 25.8563 263.12 25.6896 262.46C25.389 261.271 25.5852 260.252 26.2783 259.403C26.9713 258.554 28.1516 257.918 29.8192 257.497C30.5431 257.314 31.2623 257.194 31.9768 257.137C32.6881 257.067 33.2749 257.05 33.7375 257.084L34.4139 259.76C33.8025 259.681 33.1993 259.661 32.6044 259.702C32.0224 259.739 31.4664 259.824 30.9364 259.958C30.2384 260.135 29.6859 260.343 29.2791 260.583C28.8852 260.82 28.7471 261.172 28.8647 261.637C28.9333 261.909 29.0664 262.109 29.264 262.238C29.4584 262.353 29.7593 262.429 30.1669 262.463C30.5873 262.494 31.1501 262.517 31.8551 262.531C32.9449 262.545 33.8103 262.677 34.4513 262.927C35.089 263.165 35.5749 263.51 35.9092 263.962C36.2402 264.4 36.4841 264.93 36.641 265.551C36.9187 266.649 36.7176 267.649 36.0376 268.55C35.3544 269.438 34.1338 270.104 32.3757 270.548ZM42.2221 268.059C41.1363 268.334 40.2128 268.244 39.4516 267.79C38.6872 267.323 38.1563 266.502 37.859 265.325L36.3983 259.547L39.5201 258.758L40.9367 264.362C41.0674 264.879 41.2866 265.229 41.5943 265.413C41.9116 265.58 42.3224 265.6 42.8265 265.472C43.2014 265.378 43.5373 265.21 43.8341 264.97C44.131 264.73 44.3599 264.466 44.5209 264.178L42.9328 257.895L46.0546 257.106L48.3779 266.297L45.4694 267.032L45.1764 266.281C44.8734 266.66 44.4798 267.007 43.9955 267.322C43.5113 267.637 42.9201 267.883 42.2221 268.059ZM50.3549 265.797L48.0316 256.606L50.9401 255.871L51.238 256.642C51.5476 256.288 51.9622 255.943 52.482 255.605C52.9985 255.255 53.5799 254.998 54.2262 254.834C55.4155 254.534 56.3535 254.599 57.0402 255.031C57.7269 255.462 58.2205 256.272 58.5211 257.462L60.0112 263.356L56.8894 264.145L55.4631 258.503C55.3323 257.986 55.1293 257.645 54.854 257.481C54.5787 257.317 54.1567 257.307 53.5879 257.45C53.2518 257.535 52.9289 257.699 52.6191 257.943C52.3093 258.186 52.0674 258.454 51.8936 258.745L53.4767 265.008L50.3549 265.797Z" fill="white"/>
<path d="M82.6443 257.635L79.4878 245.148L82.5708 244.368L87.7139 250.433L89.3379 242.658L92.4016 241.883L95.5581 254.371L92.4363 255.16L90.6228 247.985L89.4346 253.649L87.7089 254.086L83.9526 249.672L85.7661 256.846L82.6443 257.635ZM102.366 252.856C100.595 253.304 99.1866 253.226 98.1405 252.624C97.0911 252.01 96.3704 250.926 95.9783 249.375C95.5894 247.837 95.7106 246.548 96.3417 245.508C96.9857 244.465 98.1867 243.722 99.9448 243.277C101.716 242.83 103.126 242.913 104.175 243.528C105.238 244.14 105.963 245.215 106.352 246.753C106.744 248.304 106.625 249.6 105.994 250.639C105.359 251.666 104.15 252.405 102.366 252.856ZM101.749 250.413C102.472 250.23 102.944 249.918 103.162 249.478C103.381 249.037 103.384 248.397 103.172 247.557C102.96 246.717 102.653 246.155 102.251 245.871C101.849 245.588 101.286 245.537 100.562 245.72C99.8514 245.9 99.3865 246.21 99.1678 246.651C98.949 247.091 98.9459 247.731 99.1583 248.571C99.3707 249.412 99.6777 249.974 100.079 250.257C100.481 250.541 101.038 250.593 101.749 250.413ZM109.097 250.948L106.774 241.757L109.683 241.022L109.981 241.792C110.29 241.439 110.705 241.094 111.224 240.756C111.741 240.405 112.322 240.148 112.969 239.985C114.158 239.684 115.096 239.75 115.783 240.181C116.469 240.613 116.963 241.423 117.264 242.613L118.754 248.507L115.632 249.296L114.206 243.654C114.075 243.137 113.872 242.796 113.597 242.632C113.321 242.468 112.899 242.457 112.33 242.601C111.994 242.686 111.671 242.85 111.362 243.094C111.052 243.337 110.81 243.604 110.636 243.896L112.219 250.159L109.097 250.948Z" fill="white"/>
<path d="M143.704 242.2L141.155 232.117L137.49 233.044L136.882 230.639L147.334 227.997L147.941 230.402L144.277 231.328L146.825 241.411L143.704 242.2ZM153.833 239.846C152.747 240.12 151.823 240.031 151.062 239.577C150.298 239.11 149.767 238.288 149.47 237.112L148.009 231.334L151.131 230.545L152.547 236.148C152.678 236.665 152.897 237.016 153.205 237.199C153.522 237.366 153.933 237.386 154.437 237.259C154.812 237.164 155.148 236.997 155.445 236.757C155.742 236.517 155.971 236.252 156.132 235.964L154.543 229.682L157.665 228.893L159.989 238.084L157.08 238.819L156.787 238.068C156.484 238.447 156.09 238.794 155.606 239.109C155.122 239.424 154.531 239.67 153.833 239.846ZM166.94 236.533C165.337 236.938 163.951 236.869 162.782 236.325C161.61 235.769 160.821 234.689 160.416 233.086C160.047 231.626 160.154 230.361 160.736 229.292C161.319 228.224 162.411 227.487 164.014 227.082C165.475 226.712 166.701 226.801 167.692 227.348C168.683 227.896 169.338 228.803 169.659 230.069L170.075 231.717L163.56 233.364C163.856 233.936 164.293 234.279 164.873 234.394C165.461 234.493 166.208 234.428 167.113 234.199C167.617 234.072 168.116 233.897 168.611 233.676C169.118 233.452 169.528 233.224 169.841 232.994L170.356 235.03C169.968 235.348 169.482 235.629 168.898 235.873C168.316 236.13 167.664 236.35 166.94 236.533ZM163.104 231.561L166.905 230.6L166.802 230.193C166.687 229.741 166.462 229.42 166.125 229.23C165.785 229.027 165.292 229.007 164.645 229.171C163.896 229.36 163.411 229.648 163.192 230.033C162.97 230.405 162.941 230.915 163.104 231.561Z" fill="white"/>
<path d="M193.749 229.549L187.684 217.798L190.748 217.023L194.298 224.13L194.548 217.94L194.102 216.175L196.662 215.528L200.721 222.527L200.54 214.548L203.603 213.773L203.871 226.991L200.982 227.721L197.064 221.037L196.638 228.819L193.749 229.549ZM212.052 225.129C210.449 225.534 209.063 225.465 207.894 224.922C206.722 224.365 205.933 223.286 205.528 221.683C205.159 220.222 205.265 218.957 205.848 217.889C206.43 216.82 207.523 216.083 209.126 215.678C210.587 215.309 211.813 215.398 212.804 215.945C213.795 216.492 214.45 217.399 214.77 218.666L215.187 220.314L208.672 221.961C208.968 222.532 209.405 222.876 209.984 222.991C210.573 223.089 211.32 223.024 212.225 222.796C212.729 222.668 213.228 222.494 213.722 222.273C214.23 222.048 214.64 221.821 214.953 221.59L215.467 223.626C215.08 223.944 214.594 224.225 214.01 224.469C213.428 224.726 212.775 224.946 212.052 225.129ZM208.216 220.158L212.017 219.197L211.914 218.79C211.799 218.337 211.574 218.016 211.237 217.826C210.897 217.623 210.404 217.604 209.757 217.767C209.008 217.956 208.523 218.244 208.304 218.629C208.082 219.002 208.053 219.511 208.216 220.158ZM221.589 222.718C220.697 222.944 219.898 222.994 219.193 222.87C218.488 222.746 217.885 222.403 217.386 221.842C216.883 221.267 216.493 220.431 216.215 219.332C215.934 218.22 215.893 217.241 216.091 216.393C216.286 215.532 216.671 214.823 217.245 214.265C217.829 213.691 218.56 213.293 219.439 213.071C219.917 212.95 220.357 212.894 220.758 212.903C221.172 212.908 221.573 212.972 221.962 213.093L220.873 208.789L223.995 208L227.299 221.069L224.604 221.75L224.233 221.018C223.94 221.436 223.582 221.788 223.159 222.074C222.733 222.347 222.21 222.561 221.589 222.718ZM221.908 220.224C222.593 220.051 223.116 219.671 223.476 219.085L222.535 215.362C221.994 215.072 221.381 215.014 220.696 215.187C220.037 215.354 219.596 215.734 219.375 216.326C219.163 216.902 219.171 217.643 219.4 218.548C219.622 219.427 219.931 219.967 220.326 220.17C220.734 220.37 221.261 220.388 221.908 220.224Z" fill="white"/>
<path d="M249.379 215.487L246.83 205.404L243.166 206.331L242.558 203.926L253.009 201.284L253.617 203.689L249.952 204.615L252.501 214.698L249.379 215.487ZM257.567 213.417L254.264 200.348L257.386 199.559L258.537 204.116C258.821 203.769 259.202 203.453 259.68 203.167C260.154 202.868 260.689 202.644 261.284 202.493C262.512 202.183 263.484 202.247 264.199 202.685C264.928 203.119 265.444 203.938 265.748 205.14L267.224 210.976L264.102 211.765L262.68 206.142C262.546 205.612 262.342 205.265 262.066 205.101C261.791 204.937 261.369 204.927 260.8 205.07C260.464 205.155 260.141 205.319 259.832 205.563C259.522 205.806 259.28 206.074 259.106 206.365L260.689 212.628L257.567 213.417ZM272.309 209.897C271.223 210.172 270.299 210.082 269.538 209.628C268.774 209.161 268.243 208.339 267.946 207.163L266.485 201.385L269.607 200.596L271.023 206.199C271.154 206.716 271.373 207.067 271.681 207.25C271.998 207.418 272.409 207.438 272.913 207.31C273.288 207.215 273.624 207.048 273.921 206.808C274.218 206.568 274.447 206.304 274.608 206.015L273.019 199.733L276.141 198.944L278.465 208.135L275.556 208.87L275.263 208.119C274.96 208.498 274.566 208.845 274.082 209.16C273.598 209.475 273.007 209.721 272.309 209.897Z" fill="white"/>
<path d="M304.66 201.513L301.504 189.026L310.578 186.732L311.186 189.136L305.233 190.641L305.895 193.259L311.13 191.935L311.748 194.378L306.513 195.702L307.782 200.724L304.66 201.513ZM314.658 198.986L312.335 189.795L315.302 189.045L315.614 189.873C315.953 189.526 316.395 189.181 316.941 188.837C317.483 188.48 318.045 188.2 318.627 187.998L319.22 190.344C318.893 190.468 318.535 190.627 318.144 190.822C317.763 191.001 317.4 191.196 317.054 191.407C316.722 191.615 316.442 191.816 316.217 192.011L317.78 198.196L314.658 198.986ZM320.105 186.283L319.512 183.937L322.906 183.079L323.499 185.425L320.105 186.283ZM323.048 196.865L321.308 189.981L319.951 190.324L319.639 187.948L323.847 186.885L326.17 196.076L323.048 196.865Z" fill="white"/>
<path d="M362.977 186.978C362.149 187.187 361.358 187.318 360.601 187.372C359.861 187.435 359.202 187.416 358.627 187.314L357.955 184.658C358.586 184.759 359.264 184.801 359.988 184.783C360.725 184.762 361.404 184.673 362.024 184.516C362.8 184.32 363.357 184.103 363.696 183.867C364.048 183.626 364.164 183.267 364.043 182.789C363.961 182.466 363.799 182.232 363.556 182.087C363.326 181.939 362.98 181.847 362.517 181.813C362.064 181.762 361.45 181.725 360.673 181.701C359.755 181.658 359.004 181.546 358.422 181.363C357.836 181.167 357.376 180.871 357.042 180.474C356.708 180.077 356.457 179.549 356.291 178.89C355.99 177.7 356.186 176.681 356.879 175.832C357.572 174.983 358.753 174.348 360.42 173.926C361.144 173.743 361.863 173.623 362.578 173.566C363.289 173.497 363.876 173.479 364.339 173.513L365.015 176.189C364.404 176.11 363.8 176.091 363.205 176.131C362.623 176.168 362.067 176.254 361.538 176.387C360.839 176.564 360.287 176.772 359.88 177.013C359.486 177.25 359.348 177.601 359.466 178.066C359.534 178.338 359.668 178.538 359.865 178.667C360.059 178.783 360.36 178.858 360.768 178.892C361.188 178.924 361.751 178.946 362.456 178.961C363.546 178.974 364.411 179.106 365.052 179.357C365.69 179.594 366.176 179.939 366.51 180.391C366.841 180.83 367.085 181.36 367.242 181.98C367.52 183.079 367.319 184.079 366.639 184.979C365.955 185.867 364.735 186.533 362.977 186.978ZM372.823 184.489C371.737 184.763 370.814 184.673 370.053 184.219C369.288 183.753 368.757 182.931 368.46 181.755L366.999 175.976L370.121 175.187L371.538 180.791C371.668 181.308 371.888 181.658 372.195 181.842C372.513 182.009 372.923 182.029 373.428 181.902C373.802 181.807 374.138 181.639 374.435 181.399C374.732 181.159 374.961 180.895 375.122 180.607L373.534 174.325L376.656 173.535L378.979 182.726L376.07 183.462L375.777 182.71C375.474 183.09 375.081 183.437 374.597 183.752C374.112 184.067 373.521 184.312 372.823 184.489ZM380.956 182.227L378.633 173.036L381.541 172.3L381.839 173.071C382.149 172.718 382.563 172.372 383.083 172.034C383.6 171.684 384.181 171.427 384.827 171.263C386.017 170.963 386.955 171.028 387.641 171.46C388.328 171.891 388.822 172.702 389.122 173.891L390.612 179.786L387.49 180.575L386.064 174.932C385.933 174.415 385.73 174.075 385.455 173.91C385.18 173.746 384.758 173.736 384.189 173.88C383.853 173.965 383.53 174.129 383.22 174.372C382.91 174.615 382.668 174.883 382.495 175.174L384.078 181.437L380.956 182.227Z" fill="white"/>
<path d="M298.576 153.653L297.841 150.745C298.173 149.12 298.738 147.602 299.536 146.19C300.361 144.772 301.272 143.317 302.271 141.827C303.185 140.441 303.91 139.336 304.445 138.513C304.979 137.69 305.314 136.946 305.448 136.279C305.608 135.606 305.583 134.856 305.374 134.029C304.838 131.909 303.2 131.195 300.459 131.888C299.399 132.156 298.385 132.55 297.416 133.07C296.441 133.564 295.534 134.109 294.695 134.707L293.332 129.316C294.249 128.699 295.35 128.105 296.635 127.532C297.947 126.953 299.275 126.494 300.619 126.154C303.541 125.415 305.95 125.59 307.848 126.678C309.746 127.766 311.031 129.642 311.705 132.305C312.084 133.804 312.065 135.198 311.648 136.486C311.224 137.748 310.468 139.164 309.379 140.732C308.567 141.872 307.842 142.922 307.204 143.881C306.586 144.807 306.097 145.756 305.737 146.727L315.006 144.384L316.221 149.193L298.576 153.653ZM330.382 146.356C327.59 147.062 325.213 147.126 323.252 146.549C321.291 145.972 319.677 144.812 318.411 143.069C317.165 141.294 316.192 139.023 315.493 136.257C314.793 133.49 314.574 131.043 314.833 128.914C315.119 126.779 315.987 124.992 317.439 123.552C318.883 122.087 321.002 121.001 323.794 120.295C326.612 119.583 328.992 119.532 330.934 120.141C332.895 120.718 334.509 121.878 335.774 123.621C337.04 125.364 338.023 127.618 338.722 130.385C339.421 133.151 339.632 135.615 339.353 137.776C339.067 139.911 338.199 141.698 336.747 143.138C335.322 144.571 333.2 145.643 330.382 146.356ZM329.029 141.004C330.994 140.507 332.188 139.518 332.611 138.036C333.053 136.521 332.957 134.51 332.323 132.002C331.689 129.494 330.821 127.692 329.719 126.596C328.636 125.467 327.112 125.15 325.147 125.647C323.182 126.144 321.979 127.149 321.536 128.664C321.113 130.146 321.219 132.141 321.853 134.649C322.487 137.157 323.345 138.975 324.428 140.104C325.531 141.201 327.064 141.501 329.029 141.004ZM344.249 142.108L343.514 139.199C343.846 137.575 344.411 136.057 345.209 134.645C346.033 133.226 346.945 131.772 347.943 130.282C348.858 128.895 349.583 127.791 350.117 126.968C350.652 126.145 350.986 125.4 351.121 124.734C351.28 124.061 351.256 123.311 351.047 122.483C350.511 120.363 348.873 119.65 346.132 120.342C345.072 120.61 344.058 121.004 343.089 121.524C342.114 122.018 341.206 122.564 340.367 123.161L339.005 117.771C339.921 117.154 341.023 116.559 342.308 115.987C343.62 115.408 344.947 114.948 346.292 114.608C349.213 113.87 351.623 114.045 353.521 115.133C355.419 116.221 356.704 118.096 357.377 120.759C357.756 122.259 357.737 123.653 357.32 124.941C356.897 126.203 356.141 127.618 355.052 129.186C354.24 130.327 353.515 131.376 352.877 132.335C352.259 133.262 351.77 134.21 351.41 135.182L360.678 132.839L361.894 137.647L344.249 142.108ZM364.283 137.043L363.548 134.135C363.88 132.511 364.445 130.993 365.243 129.581C366.067 128.162 366.979 126.708 367.977 125.217C368.892 123.831 369.617 122.726 370.151 121.904C370.686 121.081 371.02 120.336 371.154 119.67C371.314 118.997 371.29 118.246 371.081 117.419C370.545 115.299 368.907 114.585 366.166 115.278C365.106 115.546 364.092 115.94 363.123 116.46C362.148 116.954 361.24 117.5 360.401 118.097L359.039 112.707C359.955 112.09 361.056 111.495 362.342 110.923C363.653 110.343 364.981 109.884 366.326 109.544C369.247 108.806 371.657 108.98 373.555 110.069C375.453 111.157 376.738 113.032 377.411 115.695C377.79 117.194 377.771 118.588 377.354 119.876C376.931 121.139 376.174 122.554 375.086 124.122C374.274 125.262 373.549 126.312 372.911 127.271C372.292 128.197 371.803 129.146 371.444 130.117L380.712 127.774L381.928 132.583L364.283 137.043Z" fill="white"/>
<ellipse cx="-7.07177" cy="133.887" rx="13.875" ry="13.9806" transform="rotate(-14.1863 -7.07177 133.887)" fill="#6D221B"/>
<ellipse cx="50.3235" cy="119.379" rx="13.875" ry="13.9806" transform="rotate(-14.1863 50.3235 119.379)" fill="#6D221B"/>
<ellipse cx="107.718" cy="104.87" rx="13.875" ry="13.9806" transform="rotate(-14.1863 107.718 104.87)" fill="#6D221B"/>
<ellipse cx="171.39" cy="88.7751" rx="13.875" ry="13.9806" transform="rotate(-14.1863 171.39 88.7751)" fill="#6D221B"/>
<ellipse cx="230.578" cy="73.8133" rx="13.875" ry="13.9806" transform="rotate(-14.1863 230.578 73.8133)" fill="#6D221B"/>
<ellipse cx="287.973" cy="59.3048" rx="13.875" ry="13.9806" transform="rotate(-14.1863 287.973 59.3048)" fill="#6D221B"/>
<ellipse cx="343.574" cy="45.2497" rx="13.875" ry="13.9806" transform="rotate(-14.1863 343.574 45.2497)" fill="#6D221B"/>
<line x1="133.377" y1="505.769" x2="76.0291" y2="278.905" stroke="#999999"/>
<line x1="189.177" y1="491.673" x2="131.825" y2="264.792" stroke="#999999"/>
<line x1="242.93" y1="478.076" x2="185.828" y2="252.181" stroke="#999999"/>
<line x1="297.274" y1="464.338" x2="240.171" y2="238.444" stroke="#999999"/>
<line x1="352.537" y1="450.373" x2="295.434" y2="224.478" stroke="#999999"/>
<line x1="352.583" y1="210.028" x2="409.685" y2="435.923" stroke="#999999"/>
<line x1="36.2927" y1="347.743" x2="417.309" y2="251.428" stroke="#999999"/>
<path d="M50.2608 403.005L431.277 306.69" stroke="#999999"/>
<path d="M64.3538 458.751L445.37 362.436" stroke="#999999"/>
<rect x="22.2212" y="292.507" width="393" height="1" transform="rotate(-14.1863 22.2212 292.507)" fill="#999999"/>
<rect x="73" y="69.1914" width="461.935" height="463.556" rx="20" transform="rotate(-8.48909 73 69.1914)" fill="#98E078"/>
<rect x="125.907" y="206.89" width="393" height="283" rx="12" transform="rotate(-8.48909 125.907 206.89)" fill="white"/>
<path d="M127.236 215.791C126.257 209.236 130.778 203.13 137.333 202.151L502.29 147.679C508.845 146.701 514.952 151.221 515.93 157.776L521.983 198.327L133.288 256.342L127.236 215.791Z" fill="#DCF4D2"/>
<path d="M136.272 161.37C135.191 161.531 134.137 161.607 133.111 161.599C132.116 161.612 131.172 161.524 130.281 161.334L129.484 155.993C130.156 156.162 130.9 156.267 131.715 156.307C132.526 156.321 133.34 156.267 134.157 156.144C135.714 155.912 136.763 155.446 137.305 154.744C137.87 154.013 138.044 152.922 137.828 151.471L135.377 135.053L141.747 134.103L144.374 151.708C144.772 154.371 144.286 156.534 142.916 158.194C141.546 159.854 139.331 160.913 136.272 161.37ZM155.911 158.438C153.695 158.769 151.875 158.407 150.451 157.353C149.022 156.272 148.129 154.531 147.77 152.131L146.011 140.342L152.38 139.391L154.087 150.824C154.244 151.879 154.611 152.62 155.187 153.046C155.785 153.442 156.599 153.563 157.627 153.41C158.392 153.296 159.094 153.029 159.732 152.61C160.371 152.192 160.879 151.711 161.256 151.17L159.343 138.352L165.712 137.401L168.511 156.153L162.577 157.039L162.143 155.486C161.465 156.18 160.613 156.793 159.586 157.324C158.56 157.854 157.335 158.226 155.911 158.438ZM172.545 155.551L169.746 136.799L175.68 135.913L176.12 137.506C176.807 136.864 177.7 136.259 178.802 135.69C179.899 135.095 181.107 134.699 182.426 134.502C184.853 134.14 186.706 134.456 187.987 135.451C189.268 136.447 190.09 138.157 190.452 140.584L192.247 152.611L185.877 153.561L184.159 142.049C184.002 140.994 183.665 140.276 183.15 139.894C182.635 139.513 181.797 139.409 180.636 139.582C179.951 139.684 179.275 139.947 178.61 140.369C177.946 140.792 177.411 141.276 177.007 141.822L178.915 154.6L172.545 155.551ZM205.949 150.97C202.679 151.458 199.935 151.045 197.716 149.732C195.494 148.392 194.139 146.086 193.651 142.816C193.206 139.836 193.67 137.34 195.041 135.329C196.412 133.318 198.733 132.068 202.004 131.58C204.984 131.135 207.406 131.555 209.27 132.841C211.133 134.127 212.258 136.062 212.644 138.647L213.146 142.009L199.853 143.993C200.328 145.19 201.13 145.96 202.26 146.303C203.412 146.617 204.912 146.635 206.758 146.36C207.786 146.206 208.814 145.959 209.842 145.617C210.896 145.27 211.757 144.899 212.426 144.503L213.046 148.657C212.212 149.213 211.189 149.675 209.977 150.045C208.769 150.441 207.426 150.749 205.949 150.97ZM199.304 140.314L207.058 139.157L206.934 138.326C206.796 137.403 206.411 136.719 205.778 136.274C205.142 135.803 204.164 135.666 202.845 135.862C201.316 136.091 200.295 136.567 199.783 137.29C199.266 137.987 199.107 138.995 199.304 140.314Z" fill="white"/>
<path d="M145.32 234.527C144.476 234.653 143.675 234.705 142.917 234.683C142.174 234.673 141.521 234.588 140.958 234.43L140.553 231.72C141.171 231.884 141.841 231.993 142.564 232.047C143.299 232.098 143.984 232.077 144.617 231.983C145.408 231.865 145.984 231.705 146.345 231.502C146.719 231.298 146.869 230.952 146.796 230.464C146.747 230.135 146.609 229.886 146.382 229.717C146.167 229.547 145.832 229.422 145.375 229.342C144.93 229.247 144.322 229.149 143.552 229.048C142.642 228.914 141.906 228.727 141.345 228.487C140.781 228.235 140.353 227.894 140.06 227.466C139.767 227.038 139.57 226.488 139.47 225.815C139.289 224.602 139.585 223.607 140.359 222.831C141.133 222.055 142.371 221.54 144.072 221.286C144.81 221.176 145.538 221.128 146.254 221.142C146.969 221.143 147.555 221.184 148.012 221.264L148.419 223.994C147.819 223.854 147.22 223.775 146.624 223.756C146.042 223.735 145.48 223.765 144.939 223.846C144.227 223.952 143.657 224.105 143.228 224.304C142.812 224.5 142.64 224.836 142.711 225.311C142.752 225.588 142.865 225.8 143.049 225.948C143.231 226.083 143.523 226.187 143.925 226.262C144.34 226.335 144.898 226.414 145.598 226.498C146.681 226.619 147.529 226.836 148.142 227.149C148.753 227.449 149.202 227.84 149.49 228.323C149.776 228.793 149.966 229.344 150.06 229.977C150.228 231.098 149.928 232.073 149.162 232.902C148.394 233.717 147.113 234.259 145.32 234.527ZM155.365 233.028C154.257 233.193 153.347 233.012 152.635 232.485C151.92 231.944 151.474 231.074 151.295 229.874L150.415 223.979L153.6 223.504L154.453 229.22C154.532 229.748 154.715 230.118 155.003 230.331C155.302 230.529 155.709 230.59 156.223 230.513C156.605 230.456 156.956 230.323 157.276 230.114C157.595 229.904 157.849 229.664 158.038 229.393L157.081 222.984L160.266 222.509L161.665 231.885L158.698 232.328L158.481 231.551C158.142 231.899 157.716 232.205 157.203 232.47C156.69 232.735 156.077 232.921 155.365 233.028ZM163.682 231.584L162.283 222.208L165.25 221.765L165.47 222.561C165.813 222.24 166.26 221.938 166.81 221.653C167.359 221.356 167.963 221.158 168.623 221.059C169.836 220.878 170.763 221.036 171.403 221.534C172.044 222.032 172.454 222.887 172.635 224.1L173.533 230.114L170.348 230.589L169.489 224.833C169.41 224.305 169.242 223.946 168.984 223.755C168.727 223.565 168.308 223.513 167.728 223.599C167.385 223.65 167.047 223.782 166.715 223.993C166.382 224.204 166.115 224.447 165.913 224.719L166.867 231.109L163.682 231.584Z" fill="white"/>
<path d="M196.622 226.667L194.721 213.929L197.866 213.459L202.382 220.004L204.77 212.429L207.895 211.962L209.796 224.701L206.612 225.176L205.519 217.858L203.775 223.376L202.014 223.638L198.715 218.873L199.807 226.192L196.622 226.667ZM216.721 223.87C214.914 224.139 213.52 223.923 212.539 223.22C211.556 222.504 210.946 221.355 210.71 219.772C210.476 218.203 210.725 216.932 211.456 215.96C212.2 214.986 213.469 214.366 215.262 214.098C217.069 213.828 218.464 214.052 219.447 214.768C220.444 215.482 221.059 216.623 221.293 218.193C221.529 219.775 221.282 221.052 220.55 222.024C219.817 222.983 218.541 223.598 216.721 223.87ZM216.349 221.377C217.087 221.267 217.587 221.004 217.849 220.587C218.11 220.171 218.177 219.534 218.049 218.677C217.921 217.82 217.671 217.23 217.3 216.908C216.928 216.586 216.373 216.48 215.634 216.59C214.909 216.699 214.416 216.961 214.154 217.378C213.893 217.794 213.826 218.431 213.954 219.288C214.082 220.145 214.332 220.735 214.704 221.057C215.075 221.379 215.624 221.486 216.349 221.377ZM223.608 222.64L222.209 213.263L225.176 212.821L225.396 213.617C225.739 213.296 226.186 212.993 226.737 212.709C227.285 212.411 227.89 212.213 228.549 212.115C229.762 211.934 230.689 212.092 231.329 212.59C231.97 213.087 232.381 213.943 232.562 215.156L233.459 221.169L230.275 221.645L229.415 215.888C229.337 215.361 229.169 215.002 228.911 214.811C228.653 214.62 228.234 214.568 227.654 214.655C227.311 214.706 226.974 214.837 226.641 215.049C226.309 215.26 226.041 215.502 225.84 215.775L226.793 222.164L223.608 222.64Z" fill="white"/>
<path d="M258.912 217.37L257.377 207.084L253.638 207.642L253.272 205.189L263.934 203.598L264.3 206.051L260.562 206.609L262.097 216.895L258.912 217.37ZM269.225 216.033C268.117 216.199 267.207 216.018 266.495 215.49C265.781 214.95 265.334 214.08 265.155 212.88L264.275 206.985L267.46 206.509L268.313 212.226C268.392 212.754 268.575 213.124 268.863 213.337C269.162 213.535 269.569 213.596 270.083 213.519C270.466 213.462 270.816 213.329 271.136 213.119C271.455 212.91 271.709 212.67 271.898 212.399L270.941 205.99L274.126 205.514L275.525 214.891L272.558 215.333L272.341 214.557C272.002 214.904 271.576 215.21 271.063 215.476C270.55 215.741 269.937 215.927 269.225 216.033ZM282.596 214.037C280.961 214.282 279.589 214.075 278.479 213.418C277.368 212.748 276.691 211.596 276.447 209.961C276.224 208.47 276.456 207.223 277.142 206.217C277.827 205.211 278.988 204.587 280.623 204.343C282.113 204.12 283.324 204.33 284.256 204.973C285.188 205.616 285.75 206.584 285.943 207.876L286.194 209.557L279.548 210.549C279.785 211.147 280.186 211.532 280.751 211.704C281.327 211.861 282.077 211.87 283 211.733C283.514 211.656 284.028 211.532 284.542 211.361C285.069 211.188 285.5 211.002 285.834 210.804L286.144 212.881C285.727 213.159 285.216 213.39 284.61 213.575C284.006 213.773 283.334 213.927 282.596 214.037ZM279.273 208.71L283.15 208.131L283.088 207.716C283.019 207.254 282.827 206.912 282.51 206.69C282.192 206.454 281.703 206.385 281.044 206.484C280.279 206.598 279.769 206.836 279.513 207.198C279.254 207.546 279.175 208.05 279.273 208.71Z" fill="white"/>
<path d="M309.966 209.75L305.098 197.454L308.223 196.988L311.05 204.412L311.914 198.277L311.645 196.477L314.256 196.087L317.6 203.454L318.212 195.497L321.338 195.03L320.292 208.209L317.344 208.649L314.11 201.609L312.914 209.31L309.966 209.75ZM328.617 207.169C326.982 207.413 325.61 207.206 324.501 206.549C323.39 205.879 322.712 204.727 322.468 203.092C322.245 201.601 322.477 200.354 323.163 199.348C323.849 198.342 325.009 197.718 326.644 197.474C328.134 197.251 329.345 197.461 330.277 198.104C331.209 198.747 331.771 199.715 331.964 201.007L332.215 202.688L325.569 203.68C325.806 204.278 326.208 204.663 326.772 204.835C327.349 204.992 328.098 205.001 329.021 204.864C329.536 204.787 330.05 204.663 330.563 204.492C331.09 204.319 331.521 204.133 331.855 203.935L332.165 206.012C331.748 206.29 331.237 206.521 330.631 206.706C330.027 206.904 329.356 207.058 328.617 207.169ZM325.294 201.841L329.171 201.262L329.109 200.847C329.04 200.385 328.848 200.043 328.531 199.821C328.213 199.585 327.724 199.517 327.065 199.615C326.3 199.729 325.79 199.967 325.534 200.329C325.276 200.677 325.196 201.181 325.294 201.841ZM338.347 205.716C337.437 205.852 336.637 205.823 335.948 205.63C335.258 205.436 334.693 205.035 334.252 204.427C333.808 203.805 333.503 202.934 333.336 201.813C333.166 200.679 333.223 199.7 333.504 198.876C333.784 198.039 334.237 197.372 334.863 196.874C335.501 196.361 336.269 196.037 337.165 195.903C337.653 195.83 338.096 195.818 338.494 195.867C338.906 195.913 339.299 196.016 339.673 196.176L339.018 191.785L342.202 191.309L344.192 204.642L341.443 205.052L341.147 204.287C340.813 204.674 340.422 204.989 339.973 205.231C339.522 205.46 338.98 205.622 338.347 205.716ZM338.911 203.266C339.61 203.162 340.168 202.836 340.585 202.288L340.018 198.49C339.509 198.149 338.905 198.03 338.206 198.134C337.533 198.234 337.057 198.568 336.778 199.136C336.51 199.688 336.445 200.426 336.583 201.349C336.717 202.246 336.97 202.814 337.343 203.055C337.729 203.294 338.252 203.365 338.911 203.266Z" fill="white"/>
<path d="M366.718 201.28L365.182 190.994L361.444 191.552L361.078 189.099L371.739 187.507L372.106 189.96L368.367 190.518L369.902 200.804L366.718 201.28ZM375.071 200.033L373.081 186.701L376.266 186.225L376.959 190.874C377.276 190.557 377.686 190.28 378.19 190.043C378.692 189.793 379.246 189.622 379.853 189.532C381.106 189.345 382.067 189.505 382.735 190.012C383.417 190.516 383.85 191.382 384.033 192.608L384.922 198.563L381.737 199.038L380.881 193.301C380.8 192.761 380.631 192.395 380.373 192.204C380.116 192.014 379.697 191.962 379.116 192.048C378.774 192.099 378.436 192.231 378.103 192.442C377.771 192.653 377.504 192.895 377.302 193.168L378.255 199.557L375.071 200.033ZM390.089 197.994C388.981 198.159 388.071 197.978 387.359 197.451C386.644 196.91 386.198 196.04 386.019 194.84L385.139 188.945L388.324 188.47L389.177 194.186C389.256 194.714 389.439 195.084 389.727 195.297C390.026 195.495 390.433 195.556 390.947 195.479C391.329 195.422 391.68 195.289 392 195.08C392.319 194.87 392.573 194.63 392.762 194.359L391.805 187.95L394.99 187.475L396.389 196.851L393.422 197.294L393.205 196.517C392.866 196.865 392.44 197.171 391.927 197.436C391.414 197.701 390.801 197.887 390.089 197.994Z" fill="white"/>
<path d="M423.113 192.862L421.211 180.123L430.469 178.742L430.835 181.194L424.762 182.101L425.161 184.771L430.502 183.974L430.874 186.467L425.533 187.264L426.298 192.387L423.113 192.862ZM433.312 191.34L431.913 181.964L434.939 181.512L435.168 182.368C435.54 182.056 436.014 181.756 436.591 181.468C437.166 181.166 437.753 180.944 438.352 180.801L438.709 183.194C438.372 183.285 437.999 183.408 437.591 183.563C437.194 183.703 436.813 183.861 436.449 184.037C436.097 184.211 435.799 184.383 435.555 184.554L436.497 190.865L433.312 191.34ZM439.993 179.241L439.636 176.848L443.098 176.331L443.455 178.724L439.993 179.241ZM441.871 190.062L440.823 183.04L439.439 183.247L439.364 180.852L443.657 180.211L445.056 189.587L441.871 190.062Z" fill="white"/>
<path d="M482.584 184.188C481.74 184.314 480.939 184.366 480.181 184.344C479.438 184.334 478.785 184.25 478.222 184.091L477.818 181.381C478.435 181.545 479.105 181.654 479.828 181.708C480.564 181.76 481.248 181.738 481.881 181.644C482.672 181.526 483.248 181.366 483.609 181.164C483.983 180.959 484.133 180.613 484.061 180.126C484.011 179.796 483.873 179.547 483.646 179.379C483.432 179.208 483.096 179.083 482.639 179.003C482.194 178.908 481.586 178.81 480.816 178.709C479.906 178.575 479.171 178.388 478.609 178.149C478.046 177.896 477.617 177.555 477.324 177.127C477.031 176.699 476.834 176.149 476.734 175.476C476.553 174.263 476.849 173.268 477.623 172.492C478.397 171.716 479.635 171.201 481.336 170.947C482.074 170.837 482.802 170.789 483.519 170.803C484.233 170.805 484.819 170.845 485.276 170.925L485.683 173.655C485.083 173.516 484.484 173.436 483.888 173.417C483.306 173.397 482.744 173.427 482.203 173.507C481.491 173.613 480.921 173.766 480.492 173.965C480.077 174.162 479.904 174.497 479.975 174.972C480.016 175.249 480.129 175.461 480.313 175.609C480.495 175.744 480.787 175.849 481.189 175.923C481.604 175.996 482.162 176.075 482.862 176.159C483.945 176.28 484.793 176.498 485.406 176.811C486.017 177.11 486.466 177.502 486.754 177.984C487.04 178.454 487.23 179.005 487.324 179.638C487.492 180.759 487.192 181.734 486.426 182.563C485.658 183.379 484.378 183.92 482.584 184.188ZM492.629 182.689C491.521 182.854 490.611 182.673 489.899 182.146C489.185 181.605 488.738 180.735 488.559 179.535L487.679 173.64L490.864 173.165L491.717 178.882C491.796 179.409 491.979 179.779 492.267 179.993C492.566 180.191 492.973 180.251 493.487 180.175C493.87 180.117 494.22 179.984 494.54 179.775C494.859 179.565 495.113 179.325 495.302 179.054L494.345 172.645L497.53 172.17L498.929 181.546L495.962 181.989L495.745 181.213C495.406 181.56 494.98 181.866 494.467 182.131C493.954 182.397 493.341 182.582 492.629 182.689ZM500.946 181.245L499.547 171.869L502.514 171.426L502.734 172.222C503.077 171.902 503.524 171.599 504.074 171.315C504.623 171.017 505.227 170.819 505.887 170.721C507.1 170.539 508.027 170.698 508.667 171.195C509.308 171.693 509.718 172.548 509.9 173.761L510.797 179.775L507.612 180.25L506.753 174.494C506.674 173.966 506.506 173.607 506.249 173.417C505.991 173.226 505.572 173.174 504.992 173.26C504.649 173.312 504.311 173.443 503.979 173.654C503.646 173.866 503.379 174.108 503.177 174.381L504.131 180.77L500.946 181.245Z" fill="white"/>
<path d="M421.81 144.635L421.367 141.668C421.859 140.084 422.572 138.63 423.506 137.304C424.467 135.974 425.518 134.618 426.66 133.234C427.708 131.945 428.539 130.918 429.152 130.152C429.766 129.387 430.173 128.679 430.372 128.029C430.598 127.375 430.648 126.626 430.522 125.782C430.199 123.619 428.64 122.747 425.844 123.164C424.763 123.325 423.715 123.617 422.699 124.038C421.679 124.433 420.722 124.886 419.828 125.397L419.007 119.898C419.981 119.375 421.136 118.892 422.472 118.45C423.834 118.004 425.201 117.679 426.572 117.474C429.553 117.029 431.933 117.443 433.714 118.714C435.494 119.985 436.587 121.979 436.993 124.695C437.221 126.225 437.064 127.61 436.521 128.85C435.974 130.064 435.081 131.397 433.842 132.85C432.921 133.904 432.095 134.876 431.365 135.767C430.658 136.628 430.077 137.523 429.623 138.454L439.078 137.043L439.81 141.948L421.81 144.635ZM454.183 140.531C451.334 140.956 448.963 140.784 447.069 140.016C445.174 139.247 443.684 137.932 442.598 136.072C441.534 134.182 440.791 131.826 440.37 129.004C439.948 126.182 439.973 123.725 440.442 121.632C440.938 119.536 441.98 117.844 443.567 116.555C445.15 115.241 447.366 114.371 450.215 113.945C453.089 113.516 455.463 113.701 457.335 114.501C459.229 115.269 460.719 116.584 461.806 118.444C462.892 120.304 463.646 122.645 464.067 125.467C464.488 128.289 464.453 130.761 463.961 132.884C463.465 134.98 462.423 136.672 460.836 137.961C459.275 139.245 457.057 140.102 454.183 140.531ZM453.368 135.071C455.372 134.772 456.659 133.906 457.227 132.473C457.817 131.01 457.921 128.999 457.539 126.441C457.158 123.883 456.473 122.003 455.485 120.803C454.519 119.572 453.034 119.106 451.029 119.405C449.025 119.704 447.728 120.585 447.137 122.049C446.569 123.481 446.476 125.477 446.858 128.035C447.24 130.594 447.913 132.488 448.879 133.719C449.867 134.92 451.363 135.371 453.368 135.071ZM468.403 137.681L467.96 134.713C468.452 133.13 469.165 131.676 470.099 130.35C471.06 129.02 472.112 127.663 473.253 126.28C474.301 124.991 475.132 123.964 475.746 123.198C476.359 122.432 476.766 121.725 476.965 121.075C477.191 120.421 477.241 119.672 477.115 118.828C476.793 116.665 475.233 115.792 472.438 116.21C471.356 116.371 470.308 116.662 469.292 117.084C468.273 117.478 467.316 117.931 466.421 118.442L465.601 112.943C466.574 112.42 467.729 111.938 469.065 111.496C470.427 111.05 471.794 110.725 473.166 110.52C476.146 110.075 478.526 110.488 480.307 111.759C482.087 113.03 483.18 115.024 483.586 117.741C483.814 119.27 483.657 120.656 483.114 121.896C482.567 123.11 481.674 124.443 480.435 125.895C479.514 126.949 478.688 127.922 477.959 128.813C477.251 129.673 476.67 130.569 476.216 131.499L485.671 130.088L486.404 134.994L468.403 137.681ZM488.841 134.63L488.398 131.663C488.889 130.08 489.603 128.625 490.537 127.299C491.498 125.97 492.549 124.613 493.691 123.229C494.739 121.94 495.569 120.913 496.183 120.148C496.797 119.382 497.204 118.674 497.403 118.024C497.629 117.37 497.679 116.621 497.553 115.777C497.23 113.615 495.671 112.742 492.875 113.159C491.794 113.321 490.745 113.612 489.73 114.033C488.71 114.428 487.753 114.881 486.859 115.392L486.038 109.893C487.012 109.37 488.166 108.888 489.503 108.446C490.865 107.999 492.232 107.674 493.603 107.469C496.584 107.025 498.964 107.438 500.745 108.709C502.525 109.98 503.618 111.974 504.023 114.69C504.252 116.22 504.095 117.605 503.552 118.845C503.005 120.06 502.112 121.393 500.873 122.845C499.952 123.899 499.126 124.871 498.396 125.762C497.689 126.623 497.108 127.518 496.654 128.449L506.109 127.038L506.841 131.943L488.841 134.63Z" fill="white"/>
<ellipse cx="119.634" cy="94.6248" rx="13.875" ry="13.9806" transform="rotate(-8.48909 119.634 94.6248)" fill="#499C24"/>
<ellipse cx="178.186" cy="85.8857" rx="13.875" ry="13.9806" transform="rotate(-8.48909 178.186 85.8857)" fill="#499C24"/>
<ellipse cx="236.737" cy="77.1464" rx="13.875" ry="13.9806" transform="rotate(-8.48909 236.737 77.1464)" fill="#499C24"/>
<ellipse cx="301.692" cy="67.4515" rx="13.875" ry="13.9806" transform="rotate(-8.48909 301.692 67.4515)" fill="#499C24"/>
<ellipse cx="362.073" cy="58.4392" rx="13.875" ry="13.9806" transform="rotate(-8.48909 362.073 58.4392)" fill="#499C24"/>
<ellipse cx="420.625" cy="49.7" rx="13.875" ry="13.9806" transform="rotate(-8.48909 420.625 49.7)" fill="#499C24"/>
<ellipse cx="477.347" cy="41.2339" rx="13.875" ry="13.9806" transform="rotate(-8.48909 477.347 41.2339)" fill="#499C24"/>
<line x1="222.472" y1="478.612" x2="187.928" y2="247.176" stroke="#999999"/>
<line x1="279.395" y1="470.125" x2="244.849" y2="238.671" stroke="#999999"/>
<line x1="334.233" y1="461.931" x2="299.838" y2="231.484" stroke="#999999"/>
<line x1="389.672" y1="453.656" x2="355.276" y2="223.209" stroke="#999999"/>
<line x1="446.048" y1="445.246" x2="411.652" y2="214.798" stroke="#999999"/>
<line x1="469.953" y1="206.093" x2="504.349" y2="436.54" stroke="#999999"/>
<line x1="141.554" y1="311.729" x2="530.25" y2="253.714" stroke="#999999"/>
<path d="M149.968 368.104L538.663 310.089" stroke="#999999"/>
<path d="M158.457 424.974L547.153 366.959" stroke="#999999"/>
<rect x="133.036" y="255.369" width="393" height="1" transform="rotate(-8.48909 133.036 255.369)" fill="#999999"/>
<rect x="204.925" y="34" width="461.935" height="463.556" rx="20" transform="rotate(2.2161 204.925 34)" fill="#4285F4"/>
<rect x="231.333" y="179.13" width="393" height="283" rx="12" transform="rotate(2.2161 231.333 179.13)" fill="white"/>
<path d="M230.985 188.123C231.241 181.5 236.818 176.34 243.44 176.596L612.164 190.865C618.787 191.121 623.948 196.697 623.691 203.32L622.106 244.289L229.4 229.092L230.985 188.123Z" fill="#679DF6"/>
<path d="M250.893 145.449C249.582 145.399 248.323 145.254 247.115 145.015C245.938 144.809 244.846 144.495 243.837 144.072L244.088 137.596C244.843 137.946 245.696 138.235 246.648 138.464C247.601 138.661 248.573 138.779 249.565 138.817C251.451 138.89 252.792 138.574 253.588 137.868C254.417 137.131 254.866 135.884 254.934 134.125L255.704 114.22L263.427 114.519L262.601 135.863C262.476 139.093 261.42 141.534 259.435 143.186C257.45 144.838 254.602 145.593 250.893 145.449ZM274.703 146.371C272.017 146.267 269.951 145.434 268.507 143.873C267.063 142.28 266.398 140.029 266.51 137.119L267.064 122.826L274.786 123.125L274.249 136.986C274.2 138.265 274.467 139.22 275.051 139.851C275.668 140.452 276.601 140.776 277.848 140.824C278.775 140.86 279.662 140.702 280.508 140.351C281.354 139.999 282.06 139.546 282.626 138.992L283.227 123.451L290.95 123.75L290.07 146.485L282.875 146.207L282.71 144.279C281.755 144.946 280.614 145.479 279.285 145.876C277.957 146.273 276.43 146.438 274.703 146.371ZM301.945 147.425C299.45 147.328 297.681 146.716 296.636 145.586C295.591 144.457 295.114 142.693 295.207 140.295L296.211 114.347L303.934 114.645L302.959 139.827C302.931 140.562 303.055 141.079 303.331 141.378C303.641 141.646 304.1 141.792 304.708 141.816C305.571 141.849 306.343 141.767 307.023 141.569L306.82 146.797C306.074 147.056 305.33 147.236 304.59 147.335C303.882 147.436 303 147.466 301.945 147.425ZM313.013 155.827C311.862 155.783 310.873 155.68 310.047 155.52C309.251 155.393 308.46 155.155 307.672 154.804L307.88 149.432C308.417 149.645 308.907 149.792 309.352 149.873C309.83 149.956 310.308 150.006 310.788 150.025C312.099 150.076 313.083 149.874 313.741 149.419C314.43 148.997 315.133 148.208 315.85 147.05L306.497 124.352L314.603 124.665L320.04 139.335L326.498 125.126L334.556 125.438L325.067 145.966C324.123 148.011 323.094 149.781 321.98 151.275C320.864 152.801 319.586 153.952 318.147 154.729C316.707 155.538 314.995 155.904 313.013 155.827Z" fill="white"/>
<path d="M245.274 209.892C244.422 209.859 243.625 209.761 242.884 209.599C242.156 209.451 241.53 209.246 241.006 208.986L241.112 206.248C241.689 206.524 242.327 206.755 243.027 206.943C243.74 207.13 244.416 207.237 245.056 207.261C245.855 207.292 246.451 207.242 246.843 207.11C247.248 206.979 247.461 206.667 247.48 206.174C247.493 205.841 247.403 205.571 247.211 205.363C247.032 205.156 246.726 204.971 246.292 204.807C245.872 204.631 245.293 204.422 244.555 204.18C243.686 203.879 242.998 203.559 242.49 203.219C241.984 202.866 241.626 202.452 241.418 201.977C241.209 201.502 241.118 200.924 241.144 200.245C241.192 199.019 241.668 198.097 242.572 197.478C243.477 196.859 244.789 196.583 246.507 196.65C247.253 196.678 247.977 196.766 248.679 196.914C249.381 197.048 249.949 197.196 250.383 197.36L250.276 200.118C249.712 199.869 249.139 199.68 248.557 199.551C247.988 199.422 247.43 199.347 246.884 199.326C246.165 199.298 245.576 199.342 245.118 199.458C244.673 199.574 244.441 199.872 244.423 200.352C244.412 200.631 244.483 200.861 244.636 201.04C244.79 201.207 245.057 201.364 245.438 201.512C245.833 201.661 246.366 201.841 247.039 202.054C248.08 202.375 248.873 202.746 249.417 203.167C249.962 203.575 250.331 204.043 250.524 204.571C250.718 205.085 250.802 205.662 250.777 206.302C250.733 207.434 250.258 208.337 249.352 209.009C248.445 209.668 247.086 209.962 245.274 209.892ZM255.423 210.284C254.304 210.241 253.443 209.894 252.841 209.244C252.24 208.58 251.962 207.642 252.009 206.43L252.24 200.474L255.457 200.599L255.234 206.374C255.213 206.907 255.325 207.305 255.568 207.568C255.825 207.818 256.214 207.953 256.733 207.973C257.12 207.988 257.489 207.923 257.842 207.776C258.194 207.63 258.488 207.441 258.724 207.21L258.975 200.735L262.192 200.859L261.826 210.332L258.828 210.216L258.759 209.413C258.361 209.691 257.886 209.913 257.332 210.078C256.779 210.244 256.142 210.312 255.423 210.284ZM263.863 210.411L264.23 200.938L267.228 201.054L267.296 201.877C267.693 201.626 268.188 201.411 268.782 201.234C269.376 201.044 270.007 200.961 270.673 200.987C271.899 201.035 272.78 201.362 273.317 201.97C273.854 202.578 274.099 203.495 274.051 204.721L273.816 210.796L270.598 210.672L270.823 204.856C270.844 204.323 270.746 203.939 270.528 203.704C270.31 203.468 269.908 203.339 269.322 203.317C268.975 203.303 268.619 203.37 268.253 203.516C267.887 203.661 267.58 203.85 267.331 204.08L267.081 210.535L263.863 210.411Z" fill="white"/>
<path d="M297.144 211.699L297.642 198.828L300.819 198.951L304.041 206.221L307.794 199.221L310.952 199.344L310.454 212.214L307.236 212.089L307.522 204.695L304.783 209.793L303.004 209.724L300.647 204.429L300.361 211.823L297.144 211.699ZM317.412 212.683C315.587 212.613 314.258 212.141 313.424 211.268C312.591 210.382 312.205 209.139 312.267 207.541C312.329 205.955 312.809 204.753 313.708 203.934C314.62 203.115 315.982 202.741 317.794 202.811C319.62 202.881 320.949 203.36 321.782 204.246C322.628 205.133 323.021 206.369 322.959 207.954C322.897 209.553 322.417 210.762 321.518 211.581C320.619 212.387 319.251 212.754 317.412 212.683ZM317.51 210.165C318.256 210.194 318.796 210.028 319.13 209.667C319.464 209.307 319.648 208.693 319.682 207.827C319.715 206.961 319.579 206.336 319.274 205.95C318.969 205.565 318.443 205.358 317.697 205.329C316.964 205.3 316.431 205.467 316.096 205.827C315.762 206.188 315.578 206.801 315.545 207.667C315.511 208.533 315.647 209.159 315.953 209.545C316.258 209.93 316.777 210.137 317.51 210.165ZM324.408 212.754L324.775 203.281L327.773 203.397L327.841 204.22C328.238 203.969 328.733 203.754 329.327 203.577C329.921 203.387 330.552 203.304 331.218 203.33C332.444 203.378 333.325 203.705 333.862 204.313C334.399 204.921 334.643 205.838 334.596 207.064L334.361 213.139L331.143 213.015L331.368 207.199C331.389 206.666 331.29 206.282 331.073 206.047C330.855 205.811 330.453 205.682 329.867 205.66C329.52 205.646 329.164 205.713 328.798 205.858C328.432 206.004 328.125 206.193 327.876 206.423L327.626 212.878L324.408 212.754Z" fill="white"/>
<path d="M360.076 214.134L360.479 203.742L356.701 203.596L356.797 201.118L367.569 201.534L367.473 204.013L363.696 203.866L363.294 214.259L360.076 214.134ZM370.458 214.736C369.339 214.693 368.478 214.346 367.876 213.695C367.275 213.032 366.998 212.094 367.045 210.881L367.275 204.926L370.493 205.05L370.269 210.826C370.249 211.359 370.36 211.757 370.603 212.02C370.86 212.27 371.249 212.405 371.768 212.425C372.155 212.44 372.524 212.374 372.877 212.228C373.23 212.081 373.524 211.892 373.76 211.661L374.01 205.186L377.228 205.311L376.861 214.784L373.863 214.668L373.794 213.864C373.397 214.143 372.921 214.364 372.368 214.53C371.814 214.695 371.178 214.764 370.458 214.736ZM383.967 215.259C382.315 215.195 381.005 214.737 380.037 213.886C379.07 213.021 378.618 211.763 378.682 210.111C378.741 208.605 379.2 207.422 380.061 206.561C380.921 205.701 382.178 205.302 383.83 205.366C385.335 205.424 386.486 205.856 387.282 206.661C388.078 207.465 388.451 208.521 388.401 209.826L388.335 211.525L381.62 211.265C381.742 211.897 382.065 212.35 382.588 212.624C383.125 212.884 383.86 213.033 384.793 213.069C385.312 213.089 385.84 213.063 386.377 212.99C386.927 212.918 387.384 212.816 387.75 212.683L387.668 214.782C387.207 214.977 386.662 215.11 386.032 215.179C385.402 215.261 384.713 215.288 383.967 215.259ZM381.692 209.406L385.609 209.558L385.625 209.138C385.643 208.672 385.517 208.3 385.248 208.023C384.979 207.732 384.511 207.574 383.845 207.548C383.073 207.518 382.527 207.657 382.208 207.965C381.89 208.26 381.718 208.74 381.692 209.406Z" fill="white"/>
<path d="M411.657 216.13L409.158 203.144L412.315 203.266L413.714 211.086L415.702 205.218L415.773 203.4L418.411 203.502L420.328 211.362L422.408 203.657L425.565 203.779L422.09 216.534L419.112 216.419L417.241 208.901L414.635 216.245L411.657 216.13ZM430.463 217.058C428.811 216.994 427.501 216.537 426.533 215.685C425.566 214.82 425.114 213.562 425.178 211.91C425.237 210.404 425.696 209.221 426.557 208.361C427.417 207.5 428.674 207.101 430.326 207.165C431.831 207.224 432.982 207.655 433.778 208.46C434.574 209.265 434.947 210.32 434.897 211.625L434.831 213.324L428.116 213.064C428.238 213.696 428.561 214.149 429.084 214.423C429.621 214.684 430.356 214.832 431.289 214.868C431.808 214.888 432.336 214.862 432.873 214.79C433.423 214.717 433.88 214.615 434.246 214.482L434.165 216.581C433.703 216.777 433.158 216.909 432.528 216.978C431.898 217.06 431.209 217.087 430.463 217.058ZM428.188 211.206L432.105 211.357L432.121 210.938C432.139 210.471 432.014 210.1 431.744 209.822C431.475 209.532 431.008 209.373 430.341 209.348C429.569 209.318 429.023 209.457 428.704 209.765C428.386 210.059 428.214 210.54 428.188 211.206ZM440.293 217.439C439.374 217.403 438.594 217.226 437.952 216.908C437.311 216.589 436.83 216.09 436.509 215.411C436.189 214.718 436.051 213.805 436.095 212.673C436.139 211.527 436.376 210.575 436.806 209.818C437.236 209.047 437.805 208.476 438.513 208.103C439.235 207.717 440.049 207.542 440.955 207.577C441.448 207.596 441.886 207.666 442.268 207.788C442.664 207.91 443.031 208.084 443.369 208.311L443.54 203.874L446.758 203.998L446.237 217.468L443.459 217.361L443.31 216.554C442.911 216.873 442.468 217.109 441.981 217.264C441.496 217.405 440.933 217.463 440.293 217.439ZM441.303 215.136C442.009 215.163 442.618 214.947 443.13 214.486L443.278 210.649C442.841 210.218 442.27 209.989 441.563 209.962C440.884 209.936 440.354 210.175 439.974 210.681C439.608 211.174 439.407 211.887 439.371 212.819C439.336 213.725 439.48 214.331 439.801 214.637C440.136 214.944 440.637 215.11 441.303 215.136Z" fill="white"/>
<path d="M468.995 218.349L469.397 207.957L465.62 207.811L465.715 205.332L476.487 205.749L476.391 208.227L472.614 208.081L472.212 218.474L468.995 218.349ZM477.434 218.676L477.955 205.206L481.173 205.33L480.991 210.027C481.361 209.774 481.816 209.578 482.355 209.439C482.895 209.286 483.471 209.222 484.084 209.246C485.349 209.295 486.264 209.63 486.827 210.253C487.403 210.875 487.667 211.806 487.619 213.045L487.387 219.061L484.169 218.936L484.393 213.141C484.414 212.594 484.316 212.204 484.098 211.968C483.881 211.733 483.479 211.604 482.892 211.581C482.546 211.568 482.19 211.634 481.824 211.78C481.458 211.926 481.151 212.114 480.901 212.345L480.652 218.8L477.434 218.676ZM492.569 219.461C491.45 219.418 490.59 219.071 489.988 218.421C489.386 217.757 489.109 216.819 489.156 215.607L489.386 209.651L492.604 209.776L492.381 215.551C492.36 216.084 492.471 216.482 492.715 216.745C492.972 216.995 493.36 217.13 493.88 217.15C494.266 217.165 494.636 217.1 494.988 216.953C495.341 216.807 495.635 216.618 495.871 216.387L496.121 209.912L499.339 210.036L498.972 219.509L495.975 219.393L495.906 218.59C495.508 218.868 495.032 219.09 494.479 219.255C493.925 219.421 493.289 219.489 492.569 219.461Z" fill="white"/>
<path d="M525.972 220.554L526.47 207.684L535.823 208.045L535.727 210.524L529.592 210.286L529.487 212.984L534.883 213.193L534.786 215.711L529.39 215.502L529.189 220.678L525.972 220.554ZM536.277 220.953L536.643 211.48L539.701 211.598L539.767 212.481C540.19 212.244 540.711 212.037 541.332 211.861C541.953 211.672 542.571 211.562 543.186 211.533L543.093 213.951C542.745 213.978 542.356 214.029 541.926 214.106C541.51 214.17 541.106 214.254 540.715 214.359C540.337 214.465 540.013 214.579 539.741 214.702L539.494 221.077L536.277 220.953ZM545.089 210.305L545.182 207.887L548.68 208.023L548.586 210.441L545.089 210.305ZM544.924 221.287L545.199 214.193L543.8 214.138L544.172 211.771L548.508 211.939L548.142 221.412L544.924 221.287Z" fill="white"/>
<path d="M586.019 223.078C585.167 223.045 584.37 222.947 583.629 222.785C582.901 222.637 582.275 222.432 581.751 222.172L581.857 219.434C582.434 219.71 583.072 219.941 583.772 220.129C584.485 220.316 585.161 220.423 585.801 220.447C586.6 220.478 587.196 220.428 587.588 220.296C587.994 220.165 588.206 219.853 588.225 219.36C588.238 219.027 588.148 218.757 587.956 218.549C587.777 218.342 587.471 218.157 587.037 217.993C586.617 217.817 586.038 217.608 585.3 217.366C584.431 217.065 583.743 216.745 583.235 216.405C582.729 216.052 582.371 215.638 582.163 215.163C581.954 214.688 581.863 214.11 581.889 213.431C581.937 212.205 582.413 211.283 583.317 210.664C584.222 210.045 585.534 209.769 587.252 209.836C587.999 209.864 588.722 209.952 589.424 210.1C590.126 210.234 590.694 210.382 591.128 210.546L591.021 213.304C590.457 213.055 589.884 212.866 589.302 212.737C588.733 212.608 588.175 212.533 587.629 212.512C586.91 212.484 586.321 212.528 585.863 212.644C585.418 212.76 585.186 213.058 585.168 213.538C585.157 213.817 585.228 214.047 585.381 214.226C585.535 214.393 585.802 214.55 586.184 214.698C586.578 214.847 587.112 215.027 587.784 215.24C588.826 215.561 589.618 215.932 590.163 216.353C590.707 216.761 591.076 217.229 591.269 217.757C591.463 218.271 591.547 218.848 591.522 219.488C591.479 220.62 591.003 221.523 590.097 222.195C589.19 222.854 587.831 223.148 586.019 223.078ZM596.168 223.47C595.049 223.427 594.188 223.08 593.586 222.43C592.985 221.766 592.708 220.828 592.754 219.616L592.985 213.66L596.203 213.785L595.979 219.56C595.958 220.093 596.07 220.491 596.313 220.754C596.57 221.004 596.959 221.139 597.478 221.159C597.865 221.174 598.234 221.109 598.587 220.962C598.939 220.816 599.234 220.627 599.469 220.396L599.72 213.921L602.937 214.045L602.571 223.518L599.573 223.402L599.504 222.599C599.106 222.877 598.631 223.099 598.077 223.264C597.524 223.43 596.887 223.498 596.168 223.47ZM604.609 223.597L604.975 214.124L607.973 214.24L608.041 215.063C608.438 214.812 608.933 214.597 609.527 214.42C610.122 214.23 610.752 214.147 611.418 214.173C612.644 214.221 613.525 214.548 614.062 215.156C614.599 215.764 614.844 216.681 614.796 217.907L614.561 223.982L611.344 223.858L611.569 218.042C611.589 217.509 611.491 217.125 611.273 216.89C611.055 216.654 610.653 216.525 610.067 216.503C609.721 216.489 609.364 216.556 608.999 216.702C608.633 216.848 608.325 217.036 608.076 217.266L607.826 223.721L604.609 223.597Z" fill="white"/>
<path d="M533.65 172.924L533.766 169.926C534.543 168.462 535.514 167.165 536.679 166.036C537.87 164.908 539.155 163.77 540.534 162.622C541.803 161.551 542.81 160.696 543.555 160.057C544.3 159.419 544.831 158.799 545.148 158.197C545.492 157.597 545.68 156.87 545.713 156.018C545.797 153.833 544.427 152.685 541.603 152.576C540.51 152.534 539.426 152.625 538.35 152.851C537.275 153.049 536.25 153.316 535.277 153.652L535.491 148.096C536.545 147.764 537.769 147.504 539.164 147.318C540.586 147.133 541.99 147.067 543.375 147.121C546.386 147.237 548.648 148.085 550.162 149.665C551.675 151.245 552.379 153.407 552.273 156.151C552.213 157.697 551.801 159.029 551.037 160.147C550.274 161.238 549.149 162.382 547.662 163.579C546.561 164.443 545.569 165.246 544.687 165.985C543.832 166.7 543.095 167.472 542.475 168.302L552.028 168.671L551.836 173.628L533.65 172.924ZM566.222 174.905C563.344 174.793 561.046 174.184 559.327 173.077C557.609 171.97 556.389 170.401 555.667 168.372C554.972 166.317 554.68 163.864 554.791 161.012C554.901 158.161 555.381 155.751 556.231 153.783C557.108 151.815 558.446 150.346 560.245 149.375C562.045 148.377 564.383 147.934 567.261 148.045C570.166 148.157 572.463 148.78 574.154 149.913C575.873 151.02 577.093 152.588 577.815 154.618C578.537 156.647 578.843 159.088 578.733 161.939C578.622 164.79 578.128 167.213 577.25 169.207C576.374 171.175 575.036 172.644 573.237 173.615C571.465 174.587 569.126 175.017 566.222 174.905ZM566.435 169.389C568.461 169.467 569.885 168.855 570.71 167.553C571.562 166.225 572.038 164.268 572.138 161.684C572.238 159.099 571.914 157.125 571.166 155.762C570.446 154.373 569.073 153.639 567.048 153.561C565.023 153.482 563.584 154.107 562.732 155.435C561.908 156.738 561.446 158.681 561.346 161.266C561.246 163.851 561.556 165.838 562.276 167.226C563.024 168.59 564.41 169.311 566.435 169.389ZM580.724 174.745L580.84 171.748C581.617 170.283 582.588 168.987 583.753 167.857C584.944 166.729 586.229 165.591 587.608 164.444C588.877 163.372 589.884 162.517 590.629 161.879C591.374 161.241 591.905 160.621 592.222 160.019C592.566 159.419 592.754 158.692 592.787 157.839C592.872 155.654 591.502 154.507 588.677 154.398C587.584 154.356 586.5 154.447 585.424 154.672C584.349 154.871 583.324 155.138 582.351 155.474L582.566 149.918C583.619 149.585 584.844 149.326 586.238 149.14C587.66 148.954 589.064 148.889 590.449 148.942C593.46 149.059 595.723 149.907 597.236 151.487C598.749 153.066 599.453 155.228 599.347 157.973C599.287 159.519 598.875 160.85 598.111 161.968C597.349 163.06 596.223 164.204 594.736 165.4C593.635 166.265 592.643 167.067 591.761 167.807C590.906 168.521 590.169 169.293 589.55 170.123L599.102 170.493L598.911 175.449L580.724 174.745ZM601.373 175.545L601.489 172.547C602.266 171.082 603.237 169.786 604.401 168.656C605.593 167.528 606.878 166.391 608.256 165.243C609.525 164.171 610.533 163.316 611.278 162.678C612.023 162.04 612.554 161.42 612.871 160.818C613.214 160.218 613.403 159.491 613.436 158.638C613.52 156.453 612.15 155.306 609.326 155.197C608.233 155.155 607.149 155.246 606.073 155.471C604.997 155.67 603.973 155.937 602.999 156.273L603.214 150.717C604.268 150.384 605.492 150.125 606.887 149.939C608.309 149.753 609.712 149.688 611.098 149.741C614.109 149.858 616.371 150.706 617.885 152.286C619.398 153.865 620.102 156.027 619.995 158.772C619.936 160.318 619.524 161.649 618.76 162.767C617.997 163.859 616.872 165.003 615.385 166.199C614.284 167.064 613.292 167.866 612.409 168.606C611.554 169.32 610.817 170.092 610.198 170.922L619.751 171.292L619.559 176.248L601.373 175.545Z" fill="white"/>
<ellipse cx="246.023" cy="67.6533" rx="13.875" ry="13.9806" transform="rotate(2.2161 246.023 67.6533)" fill="#274F92"/>
<ellipse cx="305.179" cy="69.9425" rx="13.875" ry="13.9806" transform="rotate(2.2161 305.179 69.9425)" fill="#274F92"/>
<ellipse cx="364.335" cy="72.2317" rx="13.875" ry="13.9806" transform="rotate(2.2161 364.335 72.2317)" fill="#274F92"/>
<ellipse cx="429.96" cy="74.7712" rx="13.875" ry="13.9806" transform="rotate(2.2161 429.96 74.7712)" fill="#274F92"/>
<ellipse cx="490.965" cy="77.1319" rx="13.875" ry="13.9806" transform="rotate(2.2161 490.965 77.1319)" fill="#274F92"/>
<ellipse cx="550.121" cy="79.4211" rx="13.875" ry="13.9806" transform="rotate(2.2161 550.121 79.4211)" fill="#274F92"/>
<ellipse cx="607.428" cy="81.6388" rx="13.875" ry="13.9806" transform="rotate(2.2161 607.428 81.6388)" fill="#274F92"/>
<line x1="275.743" y1="464.06" x2="284.791" y2="230.235" stroke="#999999"/>
<line x1="333.253" y1="466.295" x2="342.302" y2="232.452" stroke="#999999"/>
<line x1="388.658" y1="468.43" x2="397.668" y2="235.604" stroke="#999999"/>
<line x1="444.669" y1="470.597" x2="453.679" y2="237.772" stroke="#999999"/>
<line x1="501.626" y1="472.805" x2="510.636" y2="239.979" stroke="#999999"/>
<line x1="569.539" y1="242.255" x2="560.53" y2="475.081" stroke="#999999"/>
<line x1="227.234" y1="285.051" x2="619.941" y2="300.247" stroke="#999999"/>
<path d="M225.028 342.008L617.736 357.205" stroke="#999999"/>
<path d="M222.806 399.465L615.513 414.662" stroke="#999999"/>
<rect x="229.332" y="228.089" width="393" height="1" transform="rotate(2.2161 229.332 228.089)" fill="#999999"/>
</svg>
